<?xml version="1.0" encoding="UTF-8"?>
<svg width="25px" height="23px" viewBox="0 0 25 23" version="1.1" xmlns="http://www.w3.org/2000/svg" xmlns:xlink="http://www.w3.org/1999/xlink">
    <!-- Generator: Sketch 42 (36781) - http://www.bohemiancoding.com/sketch -->
    <title>heart</title>
    <desc>Created with Sketch.</desc>
    <defs>
        <linearGradient x1="50%" y1="0%" x2="50%" y2="97.6223693%" id="linearGradient-1">
            <stop stop-color="#EE4DB7" offset="0%"></stop>
            <stop stop-color="#C743F9" offset="100%"></stop>
        </linearGradient>
    </defs>
    <g id="Page-1" stroke="none" stroke-width="1" fill="none" fill-rule="evenodd">
        <g id="Filled" transform="translate(-300.000000, -101.000000)" fill="url(#linearGradient-1)">
            <g id="heart" transform="translate(300.000000, 101.000000)">
                <path d="M25,7 C25,3.14 21.859,0 18,0 C15.83,0 13.822,0.989 12.5,2.679 C11.178,0.989 9.17,0 7,0 C3.141,0 0,3.14 0,7 C0,7.127 0.006,7.253 0.016,7.378 C0.006,7.417 0,7.458 0,7.5 C0,16.835 11.446,23 12.5,23 C13.554,23 25,16.835 25,7.5 C25,7.459 24.994,7.42 24.984,7.382 C24.993,7.256 25,7.129 25,7" id="Page-1"></path>
            </g>
        </g>
    </g>
</svg>