<?xml version="1.0" encoding="UTF-8"?>
<svg width="25px" height="25px" viewBox="0 0 25 25" version="1.1" xmlns="http://www.w3.org/2000/svg" xmlns:xlink="http://www.w3.org/1999/xlink">
    <!-- Generator: Sketch 42 (36781) - http://www.bohemiancoding.com/sketch -->
    <title>paper-airplane</title>
    <desc>Created with Sketch.</desc>
    <defs></defs>
    <g id="Page-1" stroke="none" stroke-width="1" fill="none" fill-rule="evenodd">
        <g id="Full-Color" transform="translate(-400.000000, -50.000000)">
            <g id="paper-airplane" transform="translate(400.000000, 50.000000)">
                <polygon id="Fill-1" fill="#59E1EF" points="0.5004 10.5001 10.5004 14.5001 14.4994 24.4991 24.4994 0.5001"></polygon>
                <path d="M21.1783264,3.16801693 L22.0183264,1.14801693 C22.0690587,1.02601778 22.1660178,0.929058734 22.2880169,0.878326415 L24.3080169,0.0383264151 C24.7200994,-0.133034631 25.1331893,0.280345786 24.9615385,0.692307692 L14.9615385,24.6923077 C14.7892725,25.1057461 14.2021044,25.1015522 14.0357617,24.6856953 L10.1153454,14.8846546 L0.314304662,10.9642383 C-0.101617338,10.7978695 -0.105726938,10.2105789 0.307826095,10.0384058 L2.7578261,9.01840582 C2.87820964,8.96828695 3.01341004,8.96718106 3.13459733,9.01532396 L11.8945973,12.495324 C12.0256634,12.5473913 12.1286458,12.6523882 12.1781646,12.7844383 L12.2689518,13.0265521 L14.5276428,19.1333832 L21.1783264,3.16801693 Z" id="Stroke-4" fill="#000000" fill-rule="nonzero" opacity="0.239999995"></path>
                <polygon id="Stroke-7" stroke="#000000" stroke-linecap="round" stroke-linejoin="round" points="14.5 24.5 10.5 14.5 0.5 10.5 24.5 0.5"></polygon>
                <path d="M24.5,0.5 L10.5,14.5" id="Stroke-9" stroke="#000000" stroke-linecap="round" stroke-linejoin="round"></path>
            </g>
        </g>
    </g>
</svg>