<?xml version="1.0" encoding="UTF-8"?>
<svg width="19px" height="25px" viewBox="0 0 19 25" version="1.1" xmlns="http://www.w3.org/2000/svg" xmlns:xlink="http://www.w3.org/1999/xlink">
    <!-- Generator: Sketch 42 (36781) - http://www.bohemiancoding.com/sketch -->
    <title>music</title>
    <desc>Created with Sketch.</desc>
    <defs>
        <linearGradient x1="50%" y1="0%" x2="50%" y2="100%" id="linearGradient-1">
            <stop stop-color="#FF5D3B" offset="2.89580676%"></stop>
            <stop stop-color="#FF2D67" offset="100%"></stop>
        </linearGradient>
    </defs>
    <g id="Page-1" stroke="none" stroke-width="1" fill="none" fill-rule="evenodd">
        <g id="Filled" transform="translate(-53.000000, -450.000000)" fill="url(#linearGradient-1)">
            <g id="music" transform="translate(53.000000, 450.000000)">
                <path d="M18.8023,0.1056 C18.6803,0.0106 18.5223,-0.0224 18.3733,0.0146 L6.3733,3.0146 C6.1513,3.0706 5.9943,3.2706 5.9943,3.5006 L5.9943,18.7866 C5.7133,18.5326 5.3873,18.3276 5.0173,18.1926 C4.1293,17.8686 3.0963,17.9596 2.1843,18.4366 C0.4243,19.3496 -0.4517,21.4596 0.2333,23.1416 C0.5573,23.9256 1.1753,24.5176 1.9723,24.8076 C2.3233,24.9356 2.6973,24.9986 3.0783,24.9986 C3.6583,24.9986 4.2543,24.8516 4.8063,24.5636 C6.1353,23.8706 6.9943,22.5066 6.9943,21.0896 L6.9943,8.8906 L17.9943,6.1406 L17.9943,15.7866 C17.7133,15.5326 17.3873,15.3276 17.0173,15.1926 C16.1303,14.8686 15.0963,14.9596 14.1843,15.4366 C12.4243,16.3496 11.5483,18.4596 12.2333,20.1416 C12.5573,20.9256 13.1753,21.5176 13.9723,21.8076 C14.3233,21.9356 14.6973,21.9986 15.0783,21.9986 C15.6583,21.9986 16.2543,21.8516 16.8063,21.5636 C18.1353,20.8706 18.9943,19.5066 18.9943,18.0896 L18.9943,0.5006 C18.9943,0.3456 18.9233,0.2006 18.8023,0.1056" id="Fill-1"></path>
            </g>
        </g>
    </g>
</svg>